<svg xmlns:xlink="http://www.w3.org/1999/xlink" xmlns="http://www.w3.org/2000/svg" width="24" height="24" viewBox="0 0 24 24" class="svg-wrapper--8ky9e"><defs><path id="property_svg__a" d="M0 .086h23.866v13.638H0z"></path><path id="property_svg__c" d="M0 .086h11.933v13.638H0z"></path><path id="property_svg__a" d="M0 .086h23.866v13.638H0z"></path><path id="property_svg__c" d="M0 .086h11.933v13.638H0z"></path></defs><g fill="none" fill-rule="evenodd"><path d="M9.206 10.122c0 .753-.611 1.364-1.364 1.364h-3.41c-.753 0-1.363-.61-1.363-1.364V3.303c0-.753.61-1.364 1.363-1.364h3.41c.753 0 1.364.611 1.364 1.364v6.82z" fill="#979391"></path><path d="M6.137 1.94H4.432c-.753 0-1.363.61-1.363 1.363v6.82c0 .752.61 1.363 1.363 1.363h1.705V1.94z" fill="#84807F"></path><path d="M11.933 3.644l-8.864 9.48v8.825c0 .812.661 1.47 1.477 1.47H19.32c.816 0 1.478-.658 1.478-1.47v-8.824l-8.865-9.48z" fill="#D8D7CC"></path><path d="M3.069 21.949c0 .812.661 1.47 1.477 1.47h7.387V3.644l-8.864 9.48v8.825z" fill="#C7C7BD"></path><g transform="translate(0 .162)" fill="none"><mask id="property_svg__b" fill="#FFFFFF"><use xlink:href="#property_svg__a" fill="#FFFFFF"></use></mask><path d="M22.162 13.724c-.437 0-.873-.167-1.206-.5l-9.023-9.022-9.023 9.022a1.704 1.704 0 1 1-2.41-2.41L10.728.585a1.704 1.704 0 0 1 2.41 0l10.229 10.229a1.704 1.704 0 0 1-1.205 2.91" fill="#F05A4E" mask="url(#property_svg__b)"></path></g><path d="M14.66 21.033c0 .565-.457 1.023-1.022 1.023h-3.41a1.023 1.023 0 0 1-1.022-1.023v-7.501c0-.565.457-1.023 1.022-1.023h3.41c.565 0 1.023.458 1.023 1.023v7.5z" fill="#F05A4E"></path><path d="M11.933 12.509h-1.705c-.565 0-1.022.458-1.022 1.023v7.5c0 .565.457 1.023 1.022 1.023h1.705V12.51z" fill="#D95247"></path><g transform="translate(0 .162)" fill="none"><mask id="property_svg__d" fill="#FFFFFF"><use xlink:href="#property_svg__c" fill="#FFFFFF"></use></mask><path d="M10.728.585L.499 10.814a1.704 1.704 0 1 0 2.411 2.41l9.023-9.022V.086c-.436 0-.873.166-1.205.5" fill="#D95247" mask="url(#property_svg__d)"></path></g></g></svg>