<svg xmlns:xlink="http://www.w3.org/1999/xlink" xmlns="http://www.w3.org/2000/svg" width="24" height="24" viewBox="0 0 24 24" class="svg-wrapper--8ky9e"><defs><path id="fashion_svg__a" d="M.093.186h8.513v9.169H.093z"></path><path id="fashion_svg__c" d="M.093.186h8.513v9.169H.093z"></path><path id="fashion_svg__a" d="M.093.186h8.513v9.169H.093z"></path><path id="fashion_svg__c" d="M.093.186h8.513v9.169H.093z"></path></defs><g fill="none" fill-rule="evenodd"><path d="M7.677 14.978a.787.787 0 0 1 .626-.333h6.845c.24 0 .468.121.626.334.159.21.232.492.201.772l-.79 7.208c-.053.489-.408.855-.827.855H9.093c-.42 0-.775-.366-.828-.855l-.79-7.208c-.03-.28.043-.561.202-.773" fill="#46423D"></path><path d="M7.677 14.978a.787.787 0 0 1 .626-.333h6.845c.24 0 .468.121.626.334.159.21.232.492.201.772l-.79 7.208c-.053.489-.408.855-.827.855H9.093c-.42 0-.775-.366-.828-.855l-.79-7.208c-.03-.28.043-.561.202-.773" fill="#47463E"></path><path d="M15.148 14.645h-3.599v9.169h2.809c.42 0 .774-.366.827-.855l.79-7.208c.031-.28-.042-.561-.2-.772a.787.787 0 0 0-.627-.334" fill="#3A3936"></path><g transform="translate(7.376 .051)" fill="none"><mask id="fashion_svg__b" fill="#FFFFFF"><use xlink:href="#fashion_svg__a" fill="#FFFFFF"></use></mask><path d="M8.398 9.022a.787.787 0 0 1-.626.333H.928A.787.787 0 0 1 .3 9.021 1.096 1.096 0 0 1 .1 8.25L.89 1.04c.053-.489.408-.855.827-.855h5.265c.42 0 .774.366.828.855l.79 7.208c.03.28-.043.562-.202.773" fill="#46423D" mask="url(#fashion_svg__b)"></path></g><g transform="translate(7.376 .051)" fill="none"><mask id="fashion_svg__d" fill="#FFFFFF"><use xlink:href="#fashion_svg__c" fill="#FFFFFF"></use></mask><path d="M8.398 9.022a.787.787 0 0 1-.626.333H.928A.787.787 0 0 1 .3 9.021 1.096 1.096 0 0 1 .1 8.25L.89 1.04c.053-.489.408-.855.827-.855h5.265c.42 0 .774.366.828.855l.79 7.208c.03.28-.043.562-.202.773" fill="#47463E" mask="url(#fashion_svg__d)"></path></g><path d="M15.186 1.092c-.053-.488-.408-.854-.827-.854h-2.81v9.168h3.599c.24 0 .468-.121.627-.333.158-.211.231-.493.2-.773l-.789-7.208z" fill="#3A3936"></path><path d="M17.443 12.122a5.894 5.894 0 1 1-11.789 0 5.894 5.894 0 0 1 11.789 0" fill="#F1F0E5"></path><path d="M11.549 6.883c-1.4 0-2.715.545-3.705 1.535a5.204 5.204 0 0 0-1.534 3.704c0 1.4.544 2.715 1.534 3.705a5.204 5.204 0 0 0 3.705 1.534c2.889 0 5.24-2.35 5.24-5.239s-2.351-5.239-5.24-5.239m0 11.788a6.506 6.506 0 0 1-4.631-1.918A6.505 6.505 0 0 1 5 12.123c0-1.75.681-3.394 1.918-4.631a6.505 6.505 0 0 1 4.63-1.919 6.556 6.556 0 0 1 6.55 6.55 6.556 6.556 0 0 1-6.549 6.548" fill="#7F727B"></path><path d="M7.435 7.92a5.942 5.942 0 1 1 8.403 8.404" fill="#E4E3D7"></path><path d="M11.55 9.079a.654.654 0 1 0 0-1.308.654.654 0 0 0 0 1.308M11.55 16.283a.654.654 0 1 0 0-1.31.655.655 0 1 0 0 1.31M14.496 12.026a.654.654 0 1 0 1.308 0 .654.654 0 0 0-1.308 0M7.292 12.026a.654.654 0 1 0 1.308 0 .654.654 0 0 0-1.308 0M8.93 15.3a.654.654 0 1 0 0-1.308.654.654 0 0 0 0 1.308M13.514 14.646a.654.654 0 1 0 1.31 0 .654.654 0 1 0-1.31 0M8.347 9.734a.654.654 0 1 0 1.308 0 .654.654 0 0 0-1.308 0" fill="#3A3936"></path><path d="M14.709 9.056a.211.211 0 0 0-.28-.013l-3.2 2.642a.624.624 0 0 0-.183.443c0 .161.063.315.178.43.116.115.27.18.436.18a.633.633 0 0 0 .431-.17l1.139-1.372 1.495-1.862a.21.21 0 0 0-.016-.278" fill="#F05A4E"></path><path d="M19.08 12.306a.982.982 0 1 1-1.965 0 .982.982 0 0 1 1.965 0" fill="#6C6068"></path><path d="M15.254 15.827a5.245 5.245 0 0 0 0-7.41 5.204 5.204 0 0 0-3.705-1.534c-1.4 0-2.715.545-3.705 1.535l-.926-.927a6.507 6.507 0 0 1 4.63-1.918c1.75 0 3.395.681 4.632 1.918a6.556 6.556 0 0 1 0 9.262l-.926-.926z" fill="#6C6068"></path></g></svg>