<svg xmlns:xlink="http://www.w3.org/1999/xlink" xmlns="http://www.w3.org/2000/svg" width="24" height="24" viewBox="0 0 24 24" class="svg-wrapper--8ky9e"><defs><path id="services_svg__a" d="M.11.219h12.886v13.468H.111z"></path><path id="services_svg__c" d="M.075.015h19.881V19.2H.075z"></path><path id="services_svg__a" d="M.11.219h12.886v13.468H.111z"></path><path id="services_svg__c" d="M.075.015h19.881V19.2H.075z"></path></defs><g fill="none" fill-rule="evenodd"><path d="M3.46 19.439c-.483.482.017 1.764.499 2.246.483.482 1.765.982 2.247.5a.707.707 0 0 0 .146-.215l4.075-4.527-1.947-2.774-5.02 4.77z" fill="#A9A9A9"></path><g transform="translate(10.8 1.021)" fill="none"><mask id="services_svg__b" fill="#FFFFFF"><use xlink:href="#services_svg__a" fill="#FFFFFF"></use></mask><path d="M12.93 2.593c-.087-.582-.39-.459-.544-.212-.156.247-.85 1.297-1.135 1.772-.283.473-.979 1.403-2.277.485-1.352-.957-.883-1.624-.646-2.073.236-.45.963-1.714 1.068-1.872C9.5.534 9.378.072 8.959.265 8.54.46 5.988 1.473 5.633 2.926c-.36 1.481.303 2.803-1 4.117L.11 11.338l1.978 2.35 4.499-5c.465-.467 1.456-.92 2.354-.716 1.923.435 2.972-.288 3.604-1.481.565-1.068.472-3.316.385-3.898" fill="#A9A9A9" mask="url(#services_svg__b)"></path></g><path fill="#020303" d="M10.427 17.443l2.462-2.735zM10.91 12.36l-2.43 2.308z"></path><path fill="#A9A9A9" d="M8.48 14.669l1.947 2.774 2.462-2.735-1.979-2.348z"></path><g transform="translate(3.84 3.181)" fill="none"><mask id="services_svg__d" fill="#FFFFFF"><use xlink:href="#services_svg__c" fill="#FFFFFF"></use></mask><path d="M.119 18.504c.483.482 1.765.982 2.247.5.062-.062 11.182-12.475 11.182-12.475.465-.468 1.455-.92 2.354-.717 1.923.435 2.972-.288 3.604-1.481.565-1.068.472-3.316.385-3.898-.088-.582-.39-.459-.545-.212-.156.247-.85 1.296-1.135 1.772-.283.473-.979 1.403-2.277.485-.037-.026-.067-.05-.1-.076L.074 18.455l.044.049" fill="#979391" mask="url(#services_svg__d)"></path></g><path fill="#979391" d="M10.91 12.36l-2.43 2.309.524.746 2.488-2.365z"></path><path fill="#84807F" d="M10.427 17.443l2.462-2.735-.516-.612-2.471 2.599z"></path><path d="M14.923 10.602a.589.589 0 0 0-.833-.021l-2.598 2.47.88 1.045 2.55-2.682a.59.59 0 0 0 0-.812M4.754 19.456a.914.914 0 1 0 1.293 1.294l3.855-4.055-.898-1.28-4.25 4.041z" fill="#979391"></path><path d="M9.902 16.695l1.18-1.242-1.18 1.242zM11.492 13.05l-2.488 2.365.425.605 2.456-2.503zM4.754 20.782a.914.914 0 0 0 1.293-.032l3.855-4.055-.474-.675-4.674 4.762z" fill="#84807F"></path><path d="M14.923 10.602a.61.61 0 0 0-.096-.081l-2.942 2.996.488.579-1.29 1.357 3.84-4.04a.59.59 0 0 0 0-.811" fill="#84807F"></path><path fill="#716E6C" d="M11.885 13.517L9.428 16.02l.474.675 1.18-1.242 1.29-1.357z"></path><path d="M8.536 7.227c-1.813-2.825 5.765-5.715 4.589-5.744-.598-.015-2.999-.043-3.357-.005-1.454.153-4.031 1.878-4.95 2.505-1.2.819-1.65 1.296-1.726 1.362-.339.295-.054.976-.67 1.511-.652.568-1.058.14-1.434.467-.188.164-.71.553-.86.684-.152.131-.179.353-.025.53 0 0 1.43 1.57 1.552 1.708.12.139.442.256.643.08l.803-.699c.089-.076-.057-.97.403-1.325 1.058-.815 2.106-.914 3.277.431 0 0 7.754 10.242 10.108 12.967.005.006.015.007.02.013l.12.138c.317.359.838.417 1.162.13l1.71-1.51c.326-.286.407-.886.083-1.239C17.18 16.176 8.536 7.227 8.536 7.227" fill="#D2B879"></path><path d="M6.781 8.732C5.61 7.387 4.562 7.486 3.504 8.3c-.46.355-.314 1.25-.403 1.325l-.803.7c-.2.175-.523.058-.643-.08a604.027 604.027 0 0 0-1.552-1.71c-.154-.176-.127-.398.024-.529.15-.13.673-.52.861-.684.376-.327.782.101 1.434-.467.616-.535.33-1.216.67-1.51.076-.067.525-.544 1.725-1.363.92-.627 3.497-2.351 4.951-2.505.358-.038 2.759-.01 3.357.005 1.176.03-6.402 2.919-4.589 5.744L6.781 8.732" fill="#ADAEA9"></path><path d="M6.781 8.732s7.754 10.242 10.108 12.966c.005.007.015.009.02.014l.12.138c.317.359.838.417 1.162.13l.818-.722L4.615 4.125c-1.042.73-1.452 1.159-1.523 1.22-.34.295-.054.976-.67 1.511-.652.568-1.058.14-1.434.467-.188.165-.71.553-.86.684-.152.131-.179.353-.025.53 0 0 1.43 1.57 1.552 1.708.12.139.442.256.643.08l.803-.699c.089-.076-.057-.97.403-1.325 1.058-.815 2.106-.914 3.277.43" fill="#C3A76D"></path><path d="M6.781 8.732l.99-.85-3.156-3.757c-1.042.73-1.452 1.159-1.523 1.22-.34.295-.054.976-.67 1.511-.652.568-1.058.14-1.434.467-.188.165-.71.553-.86.684-.152.131-.179.353-.025.53 0 0 1.43 1.57 1.552 1.708.12.139.442.256.643.08l.803-.699c.089-.076-.057-.97.403-1.325 1.058-.815 2.106-.914 3.277.43" fill="#979391"></path><path d="M4.597 7.746c-2.276-.39-1.505-2.4-1.505-2.4-.34.294-.054.975-.67 1.51-.652.568-1.058.14-1.434.467l2.113 2.303c.089-.076-.057-.97.403-1.325.364-.28.726-.473 1.093-.555" fill="#84807F"></path></g></svg>