<svg xmlns:xlink="http://www.w3.org/1999/xlink" xmlns="http://www.w3.org/2000/svg" data-name="Layer 1" viewBox="0 0 542.22 79" class="svg-wrapper--8ky9e" width="542.22"  height="79" ><path class="ikman-jobs-blue_svg__cls-1" d="M104 19.92v56.54h12.56l.05-56.54a13.37 13.37 0 0 1-6.35 1.67 13.53 13.53 0 0 1-6.26-1.67zM110.19 13.61a6.31 6.31 0 1 0-6.31-6.3 6.31 6.31 0 0 0 6.31 6.3zM155.49 45.44l2.09-2.29 4-4.32 9.51-10.17 3.31-3.61 1.78-2h-8.6a12.61 12.61 0 0 0-8.85 3.66l-.91 1-16.92 18.85h-.31V1.05h-5.34A6.31 6.31 0 0 0 129 7.36v69.1h11.64v-15c1.17-1.37 2.39-2.7 3.61-4s2.44-2.54 3.61-3.86q3.83 5.79 7.48 11.44t7.47 11.44h13.58c-3.51-5.14-7-10.32-10.48-15.51-3.4-5.16-6.91-10.34-10.42-15.53zM305.59 26.73a18.78 18.78 0 0 0-7-2.85 41.38 41.38 0 0 0-8.55-.81 36.75 36.75 0 0 0-10.83 1.57 15.63 15.63 0 0 0-2.54 1c-.05.05-.1.05-.2.1a6.29 6.29 0 0 0-2.7 9l.87 1.12 1.93 2.49c.3-.3.66-.56 1-.86a15.46 15.46 0 0 1 4.32-2.44 13.4 13.4 0 0 1 2.69-.71 26.54 26.54 0 0 1 4.78-.41 16.63 16.63 0 0 1 5.19.66 8.57 8.57 0 0 1 3.25 1.68 5 5 0 0 1 1.68 2.44 9.21 9.21 0 0 1 .51 2.9v3.91h-14.53a21.87 21.87 0 0 0-7.83 1.27 16.57 16.57 0 0 0-5.7 3.51 15.54 15.54 0 0 0-3.46 5.14 15.83 15.83 0 0 0-1.16 6.15c0 5.19 1.67 9.15 5 12s7.83 4.17 13.52 4.17a24.67 24.67 0 0 0 7.94-1.32 12.35 12.35 0 0 0 6-4.12l.2.1v4.12h12.2V40.81a18.73 18.73 0 0 0-1.78-8.59 14.3 14.3 0 0 0-4.8-5.49zM300 58.15a14.2 14.2 0 0 1-.1 1.63 7 7 0 0 1-1.27 3.56 9.57 9.57 0 0 1-2.65 2.29 11.69 11.69 0 0 1-3.51 1.22 21 21 0 0 1-4 .35 13.93 13.93 0 0 1-4.48-.61 9.08 9.08 0 0 1-2.9-1.52 5.13 5.13 0 0 1-1.68-2.07 6.58 6.58 0 0 1-.51-2.39 5.41 5.41 0 0 1 2-4.22c1.32-1.17 3.56-1.73 6.66-1.73H300v3.49zM241.63 22.31a18.51 18.51 0 0 0-7.53 1.57 30.16 30.16 0 0 0-8.79 6.21 12 12 0 0 0-2.29-2.9c-3.31-3.16-7.38-4.83-12.87-4.83a16 16 0 0 0-7.52 1.57c-2.8 1.48-4.38 3.56-6.1 5.49v-6.35h-6.31a6.3 6.3 0 0 0-6.3 6.3v47.14h12.55V44.93c-.05-4.27.41-6.51 2.34-8.39a10.12 10.12 0 0 1 7.38-2.79c3.45 0 5.59 1.06 7.17 3s2 4.93 2 8.39v31.37h12.54V44.93c-.05-4.27.41-6.51 2.34-8.39a10.08 10.08 0 0 1 7.37-2.79c3.46 0 5.59 1.06 7.17 3s2 4.93 2 8.39v31.37h12.56V41.93c0-6.35-1.68-11.64-5-14.79s-7.22-4.83-12.71-4.83zM350 22.26a16 16 0 0 0-7.52 1.57c-2.8 1.48-4.37 3.56-6.1 5.49V23h-6.28a6.29 6.29 0 0 0-6.3 6.3v47.16h12.56V44.88c-.06-4.27.4-6.51 2.33-8.39a10.12 10.12 0 0 1 7.38-2.79c3.46 0 5.59 1.06 7.17 2.94s2 4.94 2 8.39v31.43h12.56V41.88c0-6.35-1.68-11.64-5-14.79s-7.27-4.83-12.8-4.83zM433.47 23a20.27 20.27 0 0 1 7.78 1.47 17.8 17.8 0 0 1 5.9 4 16.68 16.68 0 0 1 3.71 6.15 22.48 22.48 0 0 1 1.28 7.73v14.48a23.45 23.45 0 0 1-1.33 8 17.13 17.13 0 0 1-3.76 6.17 16.66 16.66 0 0 1-5.9 3.86 20.63 20.63 0 0 1-7.73 1.38 19.54 19.54 0 0 1-8.18-1.58 16.59 16.59 0 0 1-9.31-10.37 24.05 24.05 0 0 1-1.12-7.48V42.39a23.53 23.53 0 0 1 1.12-7.32 17.73 17.73 0 0 1 3.46-6.15 17.33 17.33 0 0 1 5.85-4.28 19.17 19.17 0 0 1 8.23-1.64zm.11 6.25a11.8 11.8 0 0 0-5.34 1.12 10.93 10.93 0 0 0-3.77 3 12.33 12.33 0 0 0-2.23 4.27 16.29 16.29 0 0 0-.77 4.88v13.96a16.85 16.85 0 0 0 .77 5.08 13.5 13.5 0 0 0 2.23 4.32 11.06 11.06 0 0 0 3.77 3.05 11.53 11.53 0 0 0 5.34 1.17 11.26 11.26 0 0 0 5-1.07 11.71 11.71 0 0 0 3.76-2.84 13.2 13.2 0 0 0 2.39-4.32 17 17 0 0 0 .82-5.45V42.49a15.45 15.45 0 0 0-.82-5.13 12.26 12.26 0 0 0-2.39-4.22 10.47 10.47 0 0 0-3.76-2.85 12.14 12.14 0 0 0-5-1.02zM498.05 61.26a15.2 15.2 0 0 1-1.17 6 13.69 13.69 0 0 1-7.73 7.48 15.36 15.36 0 0 1-5.54 1h-22V28.56a5.23 5.23 0 0 1 5.24-5.24h14.54a20.77 20.77 0 0 1 6.72 1 13.45 13.45 0 0 1 4.89 2.87 11.47 11.47 0 0 1 2.94 4.32 14.76 14.76 0 0 1 1 5.54 15.12 15.12 0 0 1-.41 3.31 11.26 11.26 0 0 1-1.37 3.25 13 13 0 0 1-2.49 2.85 11.59 11.59 0 0 1-3.67 2.08v.21a10.68 10.68 0 0 1 4 1.78 11.23 11.23 0 0 1 2.84 3 12.52 12.52 0 0 1 1.68 3.71 16.33 16.33 0 0 1 .53 4.02zm-29.8-32.09v17h12.36c3.2 0 5.64-.81 7.22-2.44a8.21 8.21 0 0 0 2.39-6.1 8.28 8.28 0 0 0-2.39-6c-1.63-1.63-4-2.44-7.22-2.44h-12.36zm0 22.68V69.7h13.48a11.08 11.08 0 0 0 4.32-.77 8.63 8.63 0 0 0 3-2 8.74 8.74 0 0 0 1.78-2.85 9.53 9.53 0 0 0 0-6.71 8.07 8.07 0 0 0-1.78-2.85 8.63 8.63 0 0 0-3-2 12.34 12.34 0 0 0-4.32-.71zM504.1 65l2.75 1.17a50.13 50.13 0 0 0 11.69 3.45 17 17 0 0 0 3 .31 18.83 18.83 0 0 0 4.63-.51 11.71 11.71 0 0 0 3.71-1.63 7.76 7.76 0 0 0 2.44-2.84 8.81 8.81 0 0 0 .92-4.12 6.38 6.38 0 0 0-1-3.71 8 8 0 0 0-2.64-2.39 18.15 18.15 0 0 0-3.87-1.53c-1.47-.41-3-.76-4.68-1.07-2-.4-4.06-.86-6.1-1.32a17.34 17.34 0 0 1-5.44-2.24 11.55 11.55 0 0 1-3.91-4.12 13.46 13.46 0 0 1-1.53-6.91 13.26 13.26 0 0 1 5.29-11 17.23 17.23 0 0 1 5.54-2.85 23.72 23.72 0 0 1 6.66-1 36.17 36.17 0 0 1 16.78 5v6.4s-9.35-5-16.78-5c0 0-4.88 0-8 2.19a7.05 7.05 0 0 0-2.8 6.1 6 6 0 0 0 .92 3.41 7.73 7.73 0 0 0 2.79 2.38 20.31 20.31 0 0 0 4.63 1.68c1.83.46 3.92 1 6.26 1.38 1.62.35 3.35.76 5.08 1.27a15.72 15.72 0 0 1 4.73 2.29 11.63 11.63 0 0 1 3.46 4.21 14.41 14.41 0 0 1 1.37 6.7 14.72 14.72 0 0 1-1.37 6.45 14.29 14.29 0 0 1-3.87 4.85 18.09 18.09 0 0 1-6 3 25.28 25.28 0 0 1-7.62 1.07 29.65 29.65 0 0 1-5.14-.46 33.79 33.79 0 0 1-5.34-1.37 30.07 30.07 0 0 1-5.08-2.24l-1.48-.86V65M404.59 23.48a5.22 5.22 0 0 0-5.23 5.23v30.36a15.49 15.49 0 0 1-.82 5.54 8.1 8.1 0 0 1-2.13 3.39 8.19 8.19 0 0 1-3.16 1.73 11.94 11.94 0 0 1-3.3.35 22.38 22.38 0 0 1-2.9-.3 4.83 4.83 0 0 1-.81-.21c-.82-.25-2.85-.81-4.88-1.62v6.25l1.22.61a17.62 17.62 0 0 0 7.42 1.5 22.85 22.85 0 0 0 6.25-.87 12.52 12.52 0 0 0 5.14-2.9 13.49 13.49 0 0 0 3.41-5.29 23.38 23.38 0 0 0 1.2-8.08V23.48zM80.75 33H4.22A4.24 4.24 0 0 0 0 36.75c.05.56.05 1.06.1 1.62a42.47 42.47 0 0 0 84.71.05c0-.55.11-1.11.11-1.62a4.21 4.21 0 0 0-4.17-3.8zM20.08 18.09a8.5 8.5 0 1 0-8.49-8.5 8.52 8.52 0 0 0 8.49 8.5zM64.73 18.09a8.5 8.5 0 1 0-8.49-8.5 8.51 8.51 0 0 0 8.49 8.5z" fill="#0074BA"></path></svg>