<svg xmlns:xlink="http://www.w3.org/1999/xlink" xmlns="http://www.w3.org/2000/svg" width="24" height="24" viewBox="0 0 24 24" class="svg-wrapper--8ky9e"><defs><linearGradient x1="50%" y1="100%" x2="50%" y2="0%" id="jobs_svg__a"><stop stop-color="#29ABE2" stop-opacity="0" offset="0%"></stop><stop stop-color="#3FB4E5" stop-opacity="0.007" offset="3.69%"></stop><stop stop-color="#6CC5EB" stop-opacity="0.024" offset="12.01%"></stop><stop stop-color="#94D5F0" stop-opacity="0.042" offset="20.91%"></stop><stop stop-color="#B5E2F5" stop-opacity="0.061" offset="30.3%"></stop><stop stop-color="#D0EDF9" stop-opacity="0.081" offset="40.3%"></stop><stop stop-color="#E5F5FB" stop-opacity="0.102" offset="51.14%"></stop><stop stop-color="#F4FBFD" stop-opacity="0.127" offset="63.24%"></stop><stop stop-color="#FCFEFF" stop-opacity="0.155" offset="77.59%"></stop><stop stop-color="#FFF" stop-opacity="0.2" offset="100%"></stop></linearGradient><path d="M23.751 9.146V.885H.287v8.261c0 .874.734 1.582 1.64 1.582h20.186c.905 0 1.638-.708 1.638-1.582z" id="jobs_svg__b"></path><linearGradient x1="50%" y1="100%" x2="50%" y2="0%" id="jobs_svg__c"><stop stop-color="#005080" stop-opacity="0.5" offset="0%"></stop><stop stop-color="#024E7B" stop-opacity="0.467" offset="6.7%"></stop><stop stop-color="#0A4968" stop-opacity="0.318" offset="31.434%"></stop><stop stop-color="#0E455D" stop-opacity="0.165" offset="64.314%"></stop><stop stop-color="#104459" stop-opacity="0" offset="100%"></stop></linearGradient><linearGradient x1="50%" y1="100%" x2="50%" y2="0%" id="jobs_svg__e"><stop stop-color="#29ABE2" stop-opacity="0" offset="0%"></stop><stop stop-color="#4EB9E7" stop-opacity="0.011" offset="4.3%"></stop><stop stop-color="#77CAED" stop-opacity="0.025" offset="9.99%"></stop><stop stop-color="#9CD8F2" stop-opacity="0.04" offset="16.19%"></stop><stop stop-color="#BBE4F6" stop-opacity="0.057" offset="22.83%"></stop><stop stop-color="#D4EEF9" stop-opacity="0.074" offset="30.05%"></stop><stop stop-color="#E7F6FC" stop-opacity="0.094" offset="38.08%"></stop><stop stop-color="#F5FBFE" stop-opacity="0.117" offset="47.36%"></stop><stop stop-color="#FDFEFF" stop-opacity="0.146" offset="59.02%"></stop><stop stop-color="#FFF" stop-opacity="0.2" offset="80.68%"></stop><stop stop-color="#FCFEFF" stop-opacity="0.152" offset="85.29%"></stop><stop stop-color="#F4FBFE" stop-opacity="0.123" offset="88.07%"></stop><stop stop-color="#E6F5FC" stop-opacity="0.1" offset="90.37%"></stop><stop stop-color="#D1EDF9" stop-opacity="0.079" offset="92.41%"></stop><stop stop-color="#B7E3F5" stop-opacity="0.059" offset="94.27%"></stop><stop stop-color="#97D6F1" stop-opacity="0.041" offset="96%"></stop><stop stop-color="#70C7EC" stop-opacity="0.025" offset="97.63%"></stop><stop stop-color="#45B6E6" stop-opacity="0.009" offset="99.15%"></stop><stop stop-color="#29ABE2" stop-opacity="0" offset="100%"></stop></linearGradient><linearGradient x1="50%" y1="100%" x2="50%" y2="0%" id="jobs_svg__a"><stop stop-color="#29ABE2" stop-opacity="0" offset="0%"></stop><stop stop-color="#3FB4E5" stop-opacity="0.007" offset="3.69%"></stop><stop stop-color="#6CC5EB" stop-opacity="0.024" offset="12.01%"></stop><stop stop-color="#94D5F0" stop-opacity="0.042" offset="20.91%"></stop><stop stop-color="#B5E2F5" stop-opacity="0.061" offset="30.3%"></stop><stop stop-color="#D0EDF9" stop-opacity="0.081" offset="40.3%"></stop><stop stop-color="#E5F5FB" stop-opacity="0.102" offset="51.14%"></stop><stop stop-color="#F4FBFD" stop-opacity="0.127" offset="63.24%"></stop><stop stop-color="#FCFEFF" stop-opacity="0.155" offset="77.59%"></stop><stop stop-color="#FFF" stop-opacity="0.2" offset="100%"></stop></linearGradient><linearGradient x1="50%" y1="100%" x2="50%" y2="0%" id="jobs_svg__c"><stop stop-color="#005080" stop-opacity="0.5" offset="0%"></stop><stop stop-color="#024E7B" stop-opacity="0.467" offset="6.7%"></stop><stop stop-color="#0A4968" stop-opacity="0.318" offset="31.434%"></stop><stop stop-color="#0E455D" stop-opacity="0.165" offset="64.314%"></stop><stop stop-color="#104459" stop-opacity="0" offset="100%"></stop></linearGradient><linearGradient x1="50%" y1="100%" x2="50%" y2="0%" id="jobs_svg__e"><stop stop-color="#29ABE2" stop-opacity="0" offset="0%"></stop><stop stop-color="#4EB9E7" stop-opacity="0.011" offset="4.3%"></stop><stop stop-color="#77CAED" stop-opacity="0.025" offset="9.99%"></stop><stop stop-color="#9CD8F2" stop-opacity="0.04" offset="16.19%"></stop><stop stop-color="#BBE4F6" stop-opacity="0.057" offset="22.83%"></stop><stop stop-color="#D4EEF9" stop-opacity="0.074" offset="30.05%"></stop><stop stop-color="#E7F6FC" stop-opacity="0.094" offset="38.08%"></stop><stop stop-color="#F5FBFE" stop-opacity="0.117" offset="47.36%"></stop><stop stop-color="#FDFEFF" stop-opacity="0.146" offset="59.02%"></stop><stop stop-color="#FFF" stop-opacity="0.2" offset="80.68%"></stop><stop stop-color="#FCFEFF" stop-opacity="0.152" offset="85.29%"></stop><stop stop-color="#F4FBFE" stop-opacity="0.123" offset="88.07%"></stop><stop stop-color="#E6F5FC" stop-opacity="0.1" offset="90.37%"></stop><stop stop-color="#D1EDF9" stop-opacity="0.079" offset="92.41%"></stop><stop stop-color="#B7E3F5" stop-opacity="0.059" offset="94.27%"></stop><stop stop-color="#97D6F1" stop-opacity="0.041" offset="96%"></stop><stop stop-color="#70C7EC" stop-opacity="0.025" offset="97.63%"></stop><stop stop-color="#45B6E6" stop-opacity="0.009" offset="99.15%"></stop><stop stop-color="#29ABE2" stop-opacity="0" offset="100%"></stop></linearGradient><path d="M23.751 9.146V.885H.287v8.261c0 .874.734 1.582 1.64 1.582h20.186c.905 0 1.638-.708 1.638-1.582z" id="jobs_svg__b"></path><path d="M23.751 9.146V.885H.287v8.261c0 .874.734 1.582 1.64 1.582h20.186c.905 0 1.638-.708 1.638-1.582z" id="jobs_svg__b"></path></defs><g fill="none" fill-rule="evenodd"><path d="M15.201 3.082H8.837c-.692 0-1.253.542-1.253 1.21v1.9h1.913V5.36a.7.7 0 0 1 .712-.688h3.62a.7.7 0 0 1 .712.688v.834h1.912V4.29c.001-.667-.56-1.209-1.252-1.209z" fill="#0074BA"></path><path d="M15.201 3.082H8.837c-.692 0-1.253.542-1.253 1.21v1.9h1.913V5.36a.7.7 0 0 1 .712-.688h3.62a.7.7 0 0 1 .712.688v.834h1.912V4.29c.001-.667-.56-1.209-1.252-1.209z" fill="url(&quot;#jobs_svg__a&quot;)"></path><g transform="translate(0 11.412)" fill="none"><mask id="jobs_svg__d" fill="#FFFFFF"><use xlink:href="#jobs_svg__b" fill="#FFFFFF"></use></mask><use fill="#0074BA" xlink:href="#jobs_svg__b"></use><path d="M26.352 7.832H-2.41c-.4 0-.462.4-.101.624l3.08 1.912c.507.315 1.111.49 1.693.49H21.68c.581 0 1.186-.174 1.693-.49l3.08-1.912c.36-.223.3-.624-.101-.624z" fill="url(&quot;#jobs_svg__c&quot;)" mask="url(#jobs_svg__d)"></path></g><path d="M13.677 17.52c0 .283-.23.515-.522.528a26.902 26.902 0 0 1-2.27.001.536.536 0 0 1-.522-.527v-.54h3.314v.538z" fill="#E6E6E6"></path><path d="M22.418 7.07L1.912 6.373c-.897-.03-1.65.65-1.68 1.52l-.279 7.687s3.055 1.635 11.822 1.934c7.776.266 11.933-1.125 11.933-1.125l.278-7.688c.031-.87-.67-1.599-1.568-1.63z" opacity="0.3" fill="#000"></path><path d="M22.368 6.192H1.671c-.905 0-1.64.708-1.64 1.582v7.552c0 .11.068.208.173.25.762.307 4.142 1.463 11.816 1.463 6.876 0 10.905-1.18 11.798-1.472a.271.271 0 0 0 .19-.256V7.774c0-.874-.735-1.582-1.64-1.582z" fill="#29ABE2"></path><path d="M22.368.788H1.671c-.905 0-1.64.71-1.64 1.583v7.552c0 .109.068.207.173.25.762.307 4.142 1.463 11.816 1.463 6.876 0 10.905-1.18 11.798-1.472a.271.271 0 0 0 .19-.257V2.371c0-.874-.735-1.583-1.64-1.583z" fill="url(&quot;#jobs_svg__e&quot;)" transform="translate(0 5.403)"></path><path d="M14.42 16.988s-1.055.053-2.403.053c-1.494 0-2.404-.053-2.404-.053v-1.985c0-.291.271-.527.604-.527h3.598c.334 0 .603.237.603.527v1.985h.002z" fill="#FBB03B"></path></g></svg>