<svg xmlns:xlink="http://www.w3.org/1999/xlink" xmlns="http://www.w3.org/2000/svg" width="24" height="24" viewBox="0 0 24 24" class="svg-wrapper--8ky9e"><defs><path id="food_svg__a" d="M.217.021h4.056V8.17H.217z"></path><path id="food_svg__a" d="M.217.021h4.056V8.17H.217z"></path></defs><g fill="none" fill-rule="evenodd"><path d="M10.943 13.033c0-.592-2.365-.972-3.926-2.45-1.584-1.497-.845-5.108-.845-5.108s.908.705 2.111 1.436c1.26.766 3.589 2.068 2.66 6.122" fill="#C1A672"></path><path d="M12.04 13.033c0-.592 2.364-.972 3.926-2.45 1.583-1.497.844-5.108.844-5.108s-.908.705-2.11 1.436c-1.26.766-3.59 2.068-2.66 6.122" fill="#D2B879"></path><path d="M10.943 18.533c0-.592-2.365-.971-3.926-2.45-1.584-1.497-.845-5.108-.845-5.108s.908.704 2.111 1.436c1.26.766 3.589 2.068 2.66 6.122" fill="#B19662"></path><path d="M12.04 18.533c0-.592 2.364-.971 3.926-2.45 1.583-1.497.844-5.108.844-5.108s-.908.704-2.11 1.436c-1.26.766-3.59 2.068-2.66 6.122M10.943 23.979c0-.591-2.365-.971-3.926-2.449-1.584-1.497-.845-5.108-.845-5.108s.908.704 2.111 1.435c1.26.766 3.589 2.069 2.66 6.122" fill="#C3A76D"></path><path d="M12.04 23.979c0-.591 2.364-.971 3.926-2.449 1.583-1.497.844-5.108.844-5.108s-.908.704-2.11 1.435c-1.26.766-3.59 2.069-2.66 6.122" fill="#D2B879"></path><g transform="translate(9.12 .219)" fill="none"><mask id="food_svg__b" fill="#FFFFFF"><use xlink:href="#food_svg__a" fill="#FFFFFF"></use></mask><path d="M3.422 1.808C2.899 1.198 2.245.02 2.245.02S1.592 1.198 1.07 1.808C.546 2.418.11 3.856.24 4.684c.13.828.828 2.265 2.004 3.486C3.422 6.95 4.12 5.512 4.25 4.684c.13-.828-.306-2.266-.828-2.876" fill="#D2B879" mask="url(#food_svg__b)"></path></g><path d="M11.365.24s-.653 1.176-1.176 1.787c-.523.61-.959 2.048-.828 2.875.13.828.828 2.266 2.004 3.486" fill="#C3A76D"></path></g></svg>