<svg xmlns:xlink="http://www.w3.org/1999/xlink" xmlns="http://www.w3.org/2000/svg" id="overseas_jobs_svg__Layer_1" x="0" y="0" viewBox="0 0 24 24" xmlSpace="preserve" class="svg-wrapper--8ky9e" width="36"  height="36" ><style fill="#FFFFFF">.overseas_jobs_svg__st0{fill:none}.overseas_jobs_svg__st6{fill:#ffce27}</style><path class="overseas_jobs_svg__st0" d="M0 0h24v24H0z" fill="none"></path><path d="M.6 12.7c0-.6.4-1 1-1h16.5c.6 0 1 .4 1 1v6.7c0 .6-.4 1-1 1H1.5c-.6 0-1-.4-1-1l.1-6.7z" fill-rule="evenodd" clip-rule="evenodd" fill="#52738A"></path><path d="M.7 7.8c0-.6.4-1 1-1h16.2c.6 0 1 .4 1 1v5.6c0 .6-.4 1-1 1H1.7c-.6 0-1-.4-1-1V7.8z" opacity="0.5" fill-rule="evenodd" clip-rule="evenodd" fill="#3B566E"></path><path d="M1 6.3h17.6c.6 0 1 .4 1 1v5.6c0 .6-.4 1-1 1H1c-.6 0-1-.4-1-1V7.3c0-.6.4-1 1-1z" fill="#3B566E"></path><path class="overseas_jobs_svg__st0" d="M0 0h24v24H0z" fill="none"></path><path d="M9 13.6c0-.3.2-.5.5-.5h1.2c.3 0 .5.2.5.5v1.7c0 .3-.2.5-.5.5H9.5c-.3 0-.5-.2-.5-.5v-1.7z" fill-rule="evenodd" clip-rule="evenodd" fill="#302D2A"></path><path d="M9 13.1c0-.3.2-.5.5-.5h1.2c.3 0 .5.2.5.5v1.7c0 .3-.2.5-.5.5H9.5c-.3 0-.5-.2-.5-.5v-1.7z" fill-rule="evenodd" clip-rule="evenodd" fill="#ECB661"></path><path class="overseas_jobs_svg__st6" d="M9.5 13.7c0-.3.2-.5.5-.5h.1c.3 0 .5.2.5.5v.6c0 .3-.2.5-.5.5H10c-.3 0-.5-.2-.5-.5v-.6z" fill="#FFCE27"></path><path d="M12 6v-.8c0-.4-.3-.7-.7-.8H8.4c-.4.1-.8.4-.8.8V6H6V4c0-.6.4-1 1-1h5.6c.6 0 1 .4 1 1v2H12z" fill-rule="evenodd" clip-rule="evenodd" fill="#3B566E"></path><path class="overseas_jobs_svg__st6" d="M11.4 5.7h2.7v1.1h-2.7z" fill="#FFCE27"></path><ellipse transform="rotate(-9.213 17.72 10.487)" cx="17.7" cy="10.5" rx="6.3" ry="6.3" fill="#274055"></ellipse><circle cx="17.7" cy="9.8" r="6.3" fill="#64C7DE"></circle><path d="M20.5 9.6L18 9.4l-.4-.4v-.5l-.4-.5.5-.5.3.1.1-.2h1.1l1-.5-.2-.4.3-.2v-.8l-.7.2-.1.3-.4-.1v-.4l.6-.7-.2-.6-1.1-.1-.6.6-.8-.1.5-1.1c-1.4 0-2.8.6-3.9 1.5l.3.1.6.5.2.7-.1 1 .4.3c.3.3.6.6 1 .8l1.2.3.4.6-1 1.2 1.1 1c.1.7.2 1.5.3 2.2 0 0 .7 1.7.8 1.9l.3-.3c0-.3 0-.5.1-.8 0-.3.1-.7.2-1 0-.1.1-.2.2-.3l.5-.5 1.1-1.1.1-1.4-.8-.6z" fill="#008468"></path><path d="M18.8 14.6c-3.5 0-6.3-2.8-6.3-6.3 0-1 .3-2.1.8-3-.4.4-.8.9-1.1 1.4-1.7 3-.6 6.8 2.5 8.5 3 1.7 6.8.6 8.5-2.5-1.1 1.2-2.8 1.9-4.4 1.9z" opacity="0.45" fill-rule="evenodd" clip-rule="evenodd" fill="#4891A2"></path><path class="overseas_jobs_svg__st6" d="M5.4 5.7h2.7v1.1H5.4z" fill="#FFCE27"></path></svg>