<svg xmlns:xlink="http://www.w3.org/1999/xlink" xmlns="http://www.w3.org/2000/svg" width="24" height="24" viewBox="0 0 24 24" class="svg-wrapper--8ky9e"><defs><path id="other_svg__a" d="M0 .071h23.812V22.56H0z"></path><path id="other_svg__c" d="M0 22.729h23.812V.24H0z"></path><path id="other_svg__a" d="M0 .071h23.812V22.56H0z"></path><path id="other_svg__c" d="M0 22.729h23.812V.24H0z"></path></defs><g fill="none" fill-rule="evenodd"><g transform="translate(0 .169)" fill="none"><mask id="other_svg__b" fill="#FFFFFF"><use xlink:href="#other_svg__a" fill="#FFFFFF"></use></mask><path d="M20.399.071H3.413L0 6.024V8.67h1.654v12.573c0 .728.576 1.317 1.288 1.317H20.87c.71 0 1.287-.589 1.287-1.317V8.67h1.654V6.024L20.399.071z" fill="#D2B879" mask="url(#other_svg__b)"></path></g><path fill="#C3A76D" d="M22.158 8.839H11.906v3.968h6.487zM1.654 8.839v12.573c0 .728.576 1.317 1.288 1.317h8.964v-9.922H1.654V8.84z"></path><mask id="other_svg__d" fill="#FFFFFF"><use xlink:href="#other_svg__c" fill="#FFFFFF"></use></mask><path fill="#B19662" mask="url(#other_svg__d)" d="M1.654 12.807h10.252V8.84H1.654z"></path><path d="M16.592 12.94c0 .475-.322.86-.717.86H7.937c-.395 0-.716-.385-.716-.86v-.265c0-.475.32-.86.716-.86h7.938c.395 0 .717.385.717.86v.265z" fill="#473A2A" mask="url(#other_svg__d)"></path><path fill="#E4E3D7" mask="url(#other_svg__d)" d="M7.276 20.414h9.26v-5.292h-9.26z"></path><path fill="#D1D1C6" mask="url(#other_svg__d)" d="M7.276 20.414h4.63v-5.292h-4.63z"></path><path fill="#A6A8AB" mask="url(#other_svg__d)" d="M8.268 17.437h7.276v-1.322H8.268zM8.268 19.422h7.276v-1.323H8.268z"></path><path fill="#9C9EA1" mask="url(#other_svg__d)" d="M8.268 17.437h3.638v-1.322H8.268zM8.268 19.422h3.638v-1.323H8.268z"></path><path fill="#C3A76D" mask="url(#other_svg__d)" d="M3.413.24L0 6.193h11.906V.24z"></path><path fill="#BC9E68" mask="url(#other_svg__d)" d="M0 8.839h11.906V6.193H0z"></path></g></svg>