<svg xmlns:xlink="http://www.w3.org/1999/xlink" xmlns="http://www.w3.org/2000/svg" width="24" height="24" viewBox="0 0 24 24" class="svg-wrapper--8ky9e"><g fill="none" fill-rule="evenodd"><g transform="translate(1.895)" fill="none"><path fill="#FFCE28" d="M1.263.632h5.053l1.263 13.295H0z"></path><path fill="#ECB661" d="M1.263.632H3.79v13.263H0z"></path><rect fill="#FFCE28" width="5.053" height="1.263" rx="0.632"></rect><path d="M3.79 0h3.163a.632.632 0 1 1 0 1.263H3.79V0z" fill="#ECB661"></path></g><path d="M0 14.774L12 8.21V24H0v-9.226zm5.684 1.38v1.798c0 .546.446.995.996.995h1.798a.998.998 0 0 0 .996-.995v-1.798a.998.998 0 0 0-.996-.996H6.68a.998.998 0 0 0-.996.996zM12 14.774L24 8.21V24H12v-9.226zm5.684 1.38v1.798c0 .546.446.995.996.995h1.798a.998.998 0 0 0 .996-.995v-1.798a.998.998 0 0 0-.996-.996H18.68a.998.998 0 0 0-.996.996z" fill="#52738A"></path><path fill="#3B566E" d="M12 14.791l1.263-.707L14.526 24H12z"></path></g></svg>