<svg xmlns:xlink="http://www.w3.org/1999/xlink" xmlns="http://www.w3.org/2000/svg" width="24" height="24" viewBox="0 0 24 24" class="svg-wrapper--8ky9e"><defs><path id="education_svg__a" d="M.005.184h23.833V8.9H.005z"></path><path id="education_svg__c" d="M.216.047H3.56V6H.216z"></path><path id="education_svg__e" d="M.19.047h1.69V6H.19z"></path><path id="education_svg__a" d="M.005.184h23.833V8.9H.005z"></path><path id="education_svg__c" d="M.216.047H3.56V6H.216z"></path><path id="education_svg__e" d="M.19.047h1.69V6H.19z"></path></defs><g fill="none" fill-rule="evenodd"><path d="M17.557 9.937l2.948 7.656c0 2.712-3.85 4.911-8.6 4.911-4.749 0-8.598-2.199-8.598-4.91l2.948-7.657h11.302z" fill="#47658E"></path><path d="M6.255 9.937l-2.948 7.656c0 2.712 3.85 4.911 8.599 4.911V9.937H6.255z" fill="#2A456D"></path><path fill="#2E4A74" d="M16.91 21.48l-3.07-7.557 1.225-.498 3.071 7.558z"></path><g transform="translate(0 9.305)" fill="none"><mask id="education_svg__b" fill="#FFFFFF"><use xlink:href="#education_svg__a" fill="#FFFFFF"></use></mask><path d="M23.834.184v1.144c.028.228-.09.461-.365.634L12.828 8.666c-.499.313-1.315.313-1.813 0L.374 1.962c-.276-.173-.393-.406-.365-.634l-.004-.294v-.85h23.83z" fill="#5273A0" mask="url(#education_svg__b)"></path></g><path d="M11.906 9.488H.006v.85l.003.294c-.028.228.09.462.365.634l10.641 6.704c.245.154.568.232.89.234V9.488z" fill="#47658E"></path><path d="M11 16.974c.498.319 1.313.319 1.81 0l10.628-6.79c.498-.318.498-.838 0-1.156l-10.627-6.79c-.498-.317-1.313-.317-1.81 0L.373 9.029c-.497.318-.497.838 0 1.157l10.628 6.789z" fill="#47658E"></path><path d="M11 16.974L.374 10.184c-.497-.318-.497-.838 0-1.156l10.628-6.79c.249-.158.576-.238.905-.238v15.213c-.329 0-.656-.08-.905-.239" fill="#2E4A74"></path><path d="M9.922 9.606c0 .549.888.993 1.984.993s1.984-.444 1.984-.993c0-.548-.888-.992-1.984-.992s-1.984.444-1.984.992" fill="#EC9E46"></path><path d="M13.89 9.606c.128.354-.423.698-1.037.867-.501-.281-.808-.654-.808-1.065 0-.273.136-.531.374-.756.516.397 1.345.604 1.471.954" fill="#FFCE01"></path><g transform="translate(16.32 16.505)" fill="none"><mask id="education_svg__d" fill="#FFFFFF"><use xlink:href="#education_svg__c" fill="#FFFFFF"></use></mask><path fill="#EC9E46" mask="url(#education_svg__d)" d="M1.87.047L.215 5.007 1.869 6l1.691-.992z"></path></g><g transform="translate(18 16.505)" fill="none"><mask id="education_svg__f" fill="#FFFFFF"><use xlink:href="#education_svg__e" fill="#FFFFFF"></use></mask><path fill="#FFCE01" mask="url(#education_svg__f)" d="M.19 6V.047l1.69 4.96z"></path></g><path fill="#FFCE01" d="M17.528 16.882h1.323v-3.638l-6.284-3.968-.54 1.25 5.501 3.38z"></path><path fill="#EC9E46" d="M11.554 9.98l.315-.374 6.284 3.97v2.976h-.625v-2.646l-5.99-3.638z"></path><path d="M16.827 17.543a1.324 1.324 0 1 0 2.648-.001 1.324 1.324 0 0 0-2.648 0" fill="#FFCE01"></path><path d="M18.15 16.218a1.324 1.324 0 0 0 0 2.649" fill="#EC9E46"></path></g></svg>