<svg xmlns:xlink="http://www.w3.org/1999/xlink" xmlns="http://www.w3.org/2000/svg" width="24" height="24" viewBox="0 0 24 24" class="svg-wrapper--8ky9e"><defs><path id="animals_svg__a" d="M0 .02h17.674v23.74H0z"></path><path id="animals_svg__c" d="M0 .02h12.645v23.74H0z"></path><path id="animals_svg__a" d="M0 .02h17.674v23.74H0z"></path><path id="animals_svg__c" d="M0 .02h12.645v23.74H0z"></path></defs><g fill="none" fill-rule="evenodd"><path fill="#B19662" d="M17.618 16.667l1.35 6.415-6.423-.438-2.02-4.98 1.312-2.186z"></path><g transform="translate(3 .22)" fill="none"><mask id="animals_svg__b" fill="#FFFFFF"><use xlink:href="#animals_svg__a" fill="#FFFFFF"></use></mask><path d="M15.823 22.172c-1.484-.138-2.47.024-2.486.027l-.48.084-.092-.478c-.324-1.672-.969-2.84-1.917-3.475-1.06-.708-2.165-.493-2.176-.491l-.207-.97c.062-.014 1.502-.31 2.915.623 1.093.723 1.853 1.956 2.261 3.671.424-.038 1.108-.07 1.968-.009L12.65 7.09s1.328-2.286 3.241-2.71l.691-2.393h-5.368L10.628.02S6.376 9.055 2.495 21.07C1.167 21.068.05 19.26.05 19.26s-.69 4.499 3.03 4.499h14.594s.053-1.335-1.85-1.588" fill="#D2B879" mask="url(#animals_svg__b)"></path></g><path d="M16.766 3.297h-1.482l-.215.65c.289-.143.76-.261 1.54-.261l.157-.39z" fill="#B19662"></path><path d="M14.704 3.297l-.319 1.153h.233s.003-.282.451-.504l.215-.65h-.58z" fill="#9D8453"></path><g transform="translate(3 .22)" fill="none"><mask id="animals_svg__d" fill="#FFFFFF"><use xlink:href="#animals_svg__c" fill="#FFFFFF"></use></mask><path d="M12.284 3.076l.361-1.09h-1.432L10.628.019S6.376 9.055 2.495 21.07C1.167 21.068.05 19.26.05 19.26s-.69 4.499 3.03 4.499h2.353l3.296-9.95a1.456 1.456 0 0 1-1.204-1.433v-.689a1.457 1.457 0 0 1 2.3-1.186l2.244-6.776c-.448.221-.45.504-.45.504h-.234l.319-1.154h.58z" fill="#BC9E68" mask="url(#animals_svg__d)"></path></g><path d="M11.982 14.053c.804 0 1.456-.651 1.456-1.455v-.69c0-.49-.243-.922-.614-1.186L11.73 14.03c.082.015.167.023.253.023" fill="#B19662"></path><path d="M10.525 11.909v.688c0 .718.52 1.313 1.204 1.433l1.096-3.307a1.457 1.457 0 0 0-2.3 1.186" fill="#BC9E68"></path><path d="M10.525 11.909v.688c0 .718.52 1.313 1.204 1.433l1.096-3.307a1.457 1.457 0 0 0-2.3 1.186M10.584 15.319a.68.68 0 0 1-1.359 0v-.321a.68.68 0 0 1 1.36 0v.32z" fill="#9D8453"></path><path d="M12.56 15.583a.397.397 0 0 1-.795 0v-.188a.397.397 0 0 1 .794 0v.188z" fill="#B19662"></path><path d="M15.206 13.444l.875 4.133a2.7 2.7 0 0 0 2.17 2.1L16.35 10.64a2.699 2.699 0 0 0-1.143 2.804" fill="#E4E3D7"></path></g></svg>