<svg xmlns:xlink="http://www.w3.org/1999/xlink" xmlns="http://www.w3.org/2000/svg" width="24" height="24" viewBox="0 0 24 24" class="svg-wrapper--8ky9e"><defs><path id="hobby_svg__a" d="M0 .007h23.986v23.447H0z"></path><path id="hobby_svg__c" d="M.159.276h.276v.198H.159z"></path><path id="hobby_svg__e" d="M.167.276h.275v.155H.167z"></path><path id="hobby_svg__g" d="M.274.276H.55v.136H.274z"></path><path id="hobby_svg__i" d="M.136.276H.62V.42H.136z"></path><path id="hobby_svg__k" d="M.143.276h.33V.45h-.33z"></path><path id="hobby_svg__m" d="M.158.276H.45v.227H.158z"></path><path id="hobby_svg__a" d="M0 .007h23.986v23.447H0z"></path><path id="hobby_svg__c" d="M.159.276h.276v.198H.159z"></path><path id="hobby_svg__e" d="M.167.276h.275v.155H.167z"></path><path id="hobby_svg__g" d="M.274.276H.55v.136H.274z"></path><path id="hobby_svg__i" d="M.136.276H.62V.42H.136z"></path><path id="hobby_svg__k" d="M.143.276h.33V.45h-.33z"></path><path id="hobby_svg__m" d="M.158.276H.45v.227H.158z"></path></defs><g fill="none" fill-rule="evenodd"><g transform="translate(0 .533)" fill="none"><mask id="hobby_svg__b" fill="#FFFFFF"><use xlink:href="#hobby_svg__a" fill="#FFFFFF"></use></mask><path d="M23.986 11.73c0 6.475-5.37 11.724-11.993 11.724S0 18.205 0 11.731C0 5.256 5.37.007 11.993.007S23.986 5.256 23.986 11.73" fill="#E2E1D4" mask="url(#hobby_svg__b)"></path></g><g transform="translate(10.483 .263)" fill="none"><mask id="hobby_svg__d" fill="#FFFFFF"><use xlink:href="#hobby_svg__c" fill="#FFFFFF"></use></mask><path d="M.175.35" fill="#020303" mask="url(#hobby_svg__d)"></path></g><path d="M8.81.96" fill="#020303"></path><g transform="translate(11.034 .263)" fill="none"><mask id="hobby_svg__f" fill="#FFFFFF"><use xlink:href="#hobby_svg__e" fill="#FFFFFF"></use></mask><path d="M.197.302C.269.298.34.292.412.29.34.293.27.298.197.302" fill="#020303" mask="url(#hobby_svg__f)"></path></g><g transform="translate(11.586 .263)" fill="none"><mask id="hobby_svg__h" fill="#FFFFFF"><use xlink:href="#hobby_svg__g" fill="#FFFFFF"></use></mask><path d="M.482.278L.407.276.343.278.407.277l.075.001" fill="#020303" mask="url(#hobby_svg__h)"></path></g><path d="M9.317.836" fill="#020303"></path><path d="M11.126 12.266l-6.055 3.492c.156.248.322.488.5.72l5.978-3.448v7.24c.291.063.588.113.888.152V13.04l8.043 4.757.46-.742-8.081-4.78 8.299-4.787-.451-.748-8.27 4.77V1.575h-.888V11.5l-7.38-4.365c-.104.28-.192.565-.27.855l7.227 4.276z" fill="#C7C7BD"></path><path d="M23.734 14.668l-.002.002a11.242 11.242 0 0 1 .002-.002M22.777 15.209l-2.789 1.573v1.655a10.075 10.075 0 0 0 2.789-3.228M19.988 20.999v.007a11.738 11.738 0 0 0 3.261-4.69A11.73 11.73 0 0 1 19.989 21" fill="#7F727B"></path><path d="M23.986 12.263c0-.335-.018-.666-.046-.994a9.755 9.755 0 0 1-1.164 3.94l.956-.54c.166-.776.254-1.58.254-2.406" fill="#D8D7CC"></path><path d="M23.454 15.724l-.02.064.02-.064M23.249 16.317" fill="#D1D1C6"></path><path d="M23.433 15.788l.02-.063c.11-.346.203-.698.279-1.055l-.956.539a10.077 10.077 0 0 1-2.788 3.228v2.562a11.73 11.73 0 0 0 3.445-5.211" fill="#6C6068"></path><path d="M13.764 20.508a10.512 10.512 0 0 1-2.215-.238 10.23 10.23 0 0 1-5.979-3.791 10.065 10.065 0 0 1-.499-.72 9.765 9.765 0 0 1-.902-8.624c.895-2.413 2.714-4.393 5.042-5.53l-.892-.502C3.494 2.62 0 7.042 0 12.263c0 6.475 5.37 11.723 11.993 11.723 3.072 0 5.873-1.13 7.995-2.987v-2.562a10.304 10.304 0 0 1-6.224 2.071" fill="#D8D7CC"></path><path d="M3.046 7.485l.853.505c.078-.29.166-.576.27-.855l-.664-.393-.46.743z" fill="#CCCBBE"></path><path d="M3.046 7.485l.853.505c.078-.29.166-.576.27-.855l-.664-.393-.46.743z" fill="#BCBCB3"></path><path d="M11.549 22.965h.888v-2.544c-.3-.038-.597-.088-.888-.151v2.695z" fill="#CCCBBE"></path><path d="M11.549 22.965h.888v-2.544c-.3-.038-.597-.088-.888-.151v2.695z" fill="#BCBCB3"></path><path d="M2.828 17.052l.45.748L5.57 16.48a9.914 9.914 0 0 1-.499-.72l-2.243 1.293z" fill="#CCCBBE"></path><path d="M2.828 17.052l.45.748L5.57 16.48a9.914 9.914 0 0 1-.499-.72l-2.243 1.293z" fill="#BCBCB3"></path><path d="M9.153.873l.164-.037-.164.037" fill="#7F727B"></path><g transform="translate(11.31 .263)" fill="none"><mask id="hobby_svg__j" fill="#FFFFFF"><use xlink:href="#hobby_svg__i" fill="#FFFFFF"></use></mask><path d="M.136.29" fill="#7F727B" mask="url(#hobby_svg__j)"></path></g><path d="M9.211 1.606l2.782 1.57 3.674-2.074A12.23 12.23 0 0 0 13.01.585a10.33 10.33 0 0 0-3.8 1.02" fill="#7F727B"></path><g transform="translate(10.759 .263)" fill="none"><mask id="hobby_svg__l" fill="#FFFFFF"><use xlink:href="#hobby_svg__k" fill="#FFFFFF"></use></mask><path d="M.143.327" fill="#7F727B" mask="url(#hobby_svg__l)"></path></g><g transform="translate(10.207 .263)" fill="none"><mask id="hobby_svg__n" fill="#FFFFFF"><use xlink:href="#hobby_svg__m" fill="#FFFFFF"></use></mask><path d="M.158.387" fill="#7F727B" mask="url(#hobby_svg__n)"></path></g><path d="M3.997 7.695V3.534A11.657 11.657 0 0 0 .252 9.872l3.745-2.114v-.063zM3.997 16.782L.252 14.668a11.657 11.657 0 0 0 3.745 6.338V16.782zM11.993 21.33l-3.704 2.09c1.167.37 2.41.573 3.704.573 1.293 0 2.537-.202 3.704-.572l-3.704-2.09z" fill="#6C6068"></path><path fill="#7F727B" d="M11.993 7.695L7.995 9.95v4.611l3.998 2.256 3.997-2.256V9.951zM19.988 7.758l3.746 2.114a11.656 11.656 0 0 0-3.746-6.338v4.224z"></path></g></svg>