<svg xmlns:xlink="http://www.w3.org/1999/xlink" xmlns="http://www.w3.org/2000/svg" viewBox="0 0 18 18" class="svg-wrapper--8ky9e" width="36"  height="36" ><defs><path id="essentials_svg__a" d="M2 17.598h12.998V1H2z"></path><path id="essentials_svg__a" d="M2 17.598h12.998V1H2z"></path></defs><g fill="none" fill-rule="evenodd"><path d="M10.729 6.835c.3.076.638.076.975-.075.6-.262 1.013-.825 1.013-1.463 0-.713-.45-1.351-1.088-1.576-.037-.638-.6-1.164-1.276-1.164 0-.112 0-.187-.037-.3a.852.852 0 0 0-.676-.6c-.262-.038-.487.075-.675.225a.852.852 0 0 0-.6-.225c-.488 0-.901.413-.901.9-.6.038-1.088.563-1.088 1.164 0 .112 0 .187.037.262C5.7 4.021 5.1 4.621 5.1 5.334c0 .263.075.488.187.676a.98.98 0 0 0-.375.75c0 .45.263.788.675.939-.037 1.763.563 2.814 1.802 4.202l.075.076c.488.562 1.65.15 1.388-.6-1.313-3.866 2.74-3.303 2.74-3.303s.112-1.163-.938-1.201c.075.038.075 0 .075-.038" fill="#88C057"></path><path d="M7.952 6.31v-.075c.15-.338.3-.638.487-.863.864-.188 1.502.075 1.502.112h.075c.075 0 .15-.037.187-.112.038-.113 0-.225-.112-.263-.038 0-.563-.225-1.314-.187.376-.376.713-.563.75-.6.263-.15.676.037.826.112.038 0 .075.037.113.037.075 0 .113-.037.15-.112.038-.075.038-.225-.075-.263-.038 0-.45-.263-.9-.225.037-.15.112-.3.15-.338.075-.075.037-.187-.038-.263-.075-.075-.188-.037-.263.038 0 0-.262.338-.262.713-.263.188-1.014.675-1.501 1.726-.038.038-.038.113-.076.188-.525-.376-.45-.976-.412-1.013 0-.113-.038-.188-.15-.226-.113 0-.188.038-.226.15-.037.338.038 1.051.676 1.464-.15.413-.263.9-.3 1.501v.038c-.038.412 0 .863.075 1.388-.225-.15-.338-.338-.376-.338-.037-.075-.15-.112-.262-.075-.075.038-.113.15-.075.263 0 .038.225.45.75.6.15.751.376 1.614.788 2.552a.725.725 0 0 0 .376-.112c-.413-.976-.676-1.877-.788-2.627-.113-.563-.15-1.089-.113-1.576.263-.45 1.05-.488 1.05-.488.113 0 .188-.075.188-.188 0-.112-.075-.187-.187-.187-.038 0-.563 0-1.014.3.038-.375.15-.713.263-1.013.038 0 .038 0 .038-.038" fill="#659C35"></path><path d="M10.206 9.01l.215-.128c.398-.24.896-.24 1.294 0l.215.129c.399.239.896.239 1.295 0l.608-.27c.09-.25.152-.43.176-.51.568-1.826.933-3.749.983-5.666.02-.771-.617-1.974-1.677-1.427-1.041.537-1.787 2.595-2.31 3.573a21.295 21.295 0 0 0-1.753 4.44c.32.08.663.034.954-.14" fill="#EEAF4B"></path><path d="M10.972 8.353a.302.302 0 0 1-.286-.4c.202-.591.849-.908 1.44-.709a.531.531 0 0 0 .674-.332.302.302 0 1 1 .572.194c-.201.593-.847.911-1.44.71a.533.533 0 0 0-.674.332.303.303 0 0 1-.286.205M11.686 6.25a.302.302 0 0 1-.286-.4c.098-.286.302-.518.573-.652.272-.134.58-.155.867-.057a.53.53 0 0 0 .674-.332.301.301 0 1 1 .571.194c-.2.593-.847.91-1.439.71a.53.53 0 0 0-.674.332.302.302 0 0 1-.286.205M12.4 4.146a.302.302 0 0 1-.286-.4.998.998 0 0 1 1.264-.622.39.39 0 0 0 .498-.245.302.302 0 1 1 .572.194.99.99 0 0 1-.503.574.99.99 0 0 1-.761.05.392.392 0 0 0-.498.245.303.303 0 0 1-.286.204" fill="#A46F3E"></path><path d="M6.488 10.082a2.71 2.71 0 0 1-2.48-4.764 2.709 2.709 0 1 0 2.48 4.764" fill="#E04C5B"></path><path d="M6.488 10.082a2.695 2.695 0 0 0 1.06-1.512 2.713 2.713 0 0 0-1.913-3.322 2.695 2.695 0 0 0-1.627.07 2.71 2.71 0 0 0 2.48 4.764" fill="#F05E64"></path><path fill="#FFFFFF" d="M6.057 8.515l.175-.652-.884-.238.238-.884-.652-.175-.238.884-.89-.24-.175.652.89.24-.24.89.652.175.24-.89z"></path><path d="M14.36 8.648l-.526 7.557a1.418 1.418 0 0 1-1.417 1.346H3.942a1.418 1.418 0 0 1-1.417-1.346l-.514-7.31a.215.215 0 0 1 .325-.194l.406.243c.467.28 1.05.28 1.516 0l.105-.062c.398-.24.896-.24 1.294 0l.215.129c.398.239.896.239 1.294 0l.215-.13c.4-.239.897-.239 1.295 0l.215.13c.399.239.896.239 1.294 0l.216-.13c.398-.239.896-.239 1.294 0l.215.13c.399.239.896.239 1.294 0l1.023-.455a.095.095 0 0 1 .134.092" fill="#FBD490"></path><path fill="#76ABC6" d="M9.694 7.376l-1.02 2.04v8.16h4.284v-8.16l1.02-2.04z"></path><path fill="#9ED7F3" d="M13.978 7.376l-1.02 2.04v8.16h2.04v-8.16z"></path><mask id="essentials_svg__b" fill="#FFFFFF"><use xlink:href="#essentials_svg__a" fill="#FFFFFF"></use></mask><path fill="#9ED7F3" mask="url(#essentials_svg__b)" d="M9.694 7.376h4.285V6.56H9.694zM12.142 12.811a1.326 1.326 0 1 1-2.652 0 1.326 1.326 0 0 1 2.652 0"></path><path fill="#5794AC" mask="url(#essentials_svg__b)" d="M8.674 9.416l1.02-2.04h4.284l-1.02 2.04z"></path><path d="M6.354 17.55s-2.629.162-2.629-.898-.47-7.519-.47-7.519-.206.024-.919-.432c0 0-.475-.37-.296.61l.485 6.894s0 1.6 1.779 1.37l2.05-.024z" fill="#E0B877" mask="url(#essentials_svg__b)"></path></g></svg>