<svg xmlns:xlink="http://www.w3.org/1999/xlink" xmlns="http://www.w3.org/2000/svg" width="24" height="24" viewBox="0 0 24 24" class="svg-wrapper--8ky9e"><defs><path id="vehicles_svg__a" d="M.032.03H21.86v17.244H.032z"></path><path id="vehicles_svg__c" d="M.146.03H11.06v17.244H.146z"></path><path id="vehicles_svg__a" d="M.032.03H21.86v17.244H.032z"></path><path id="vehicles_svg__c" d="M.146.03H11.06v17.244H.146z"></path></defs><g fill="none" fill-rule="evenodd"><path d="M0 8.571c0 .73.592 1.323 1.323 1.323h1.984a1.323 1.323 0 0 0 0-2.646H1.323C.593 7.248 0 7.841 0 8.571M19.182 8.571c0 .73.592 1.323 1.323 1.323h1.984a1.323 1.323 0 0 0 0-2.646h-1.984c-.73 0-1.323.593-1.323 1.323" fill="#00997A"></path><g transform="translate(.96 2.21)" fill="none"><mask id="vehicles_svg__b" fill="#FFFFFF"><use xlink:href="#vehicles_svg__a" fill="#FFFFFF"></use></mask><path d="M21.847 11.52c-.041-.391-.354-2.745-.8-3.433l-.84-2.766S19.025 1.044 16.65.545C15.02.203 13.59.022 10.946.03 8.302.022 6.872.203 5.24.545c-2.375.499-3.555 4.776-3.555 4.776l-.84 2.766c-.447.688-.76 3.042-.801 3.433H.039v5.38l-.007.374H21.86l-.008-.374v-5.38h-.005z" fill="#009F7F" mask="url(#vehicles_svg__b)"></path></g><g transform="translate(11.76 2.21)" fill="none"><mask id="vehicles_svg__d" fill="#FFFFFF"><use xlink:href="#vehicles_svg__c" fill="#FFFFFF"></use></mask><path d="M10.246 8.087l-.84-2.766S8.226 1.044 5.851.545C4.22.203 2.79.022.146.03v17.244H11.06l-.008-.374v-5.38h-.005c-.041-.391-.354-2.745-.8-3.433" fill="#008D70" mask="url(#vehicles_svg__d)"></path></g><path d="M3.969 15.516a1.323 1.323 0 1 1 0-2.647 1.323 1.323 0 0 1 0 2.647" fill="#E4E3D7"></path><path d="M4.673 9.894c-.437 0-.402-.455-.402-.455S5.443 5.905 5.518 5.7a.658.658 0 0 1 .55-.436h11.61c.052 0 .41.057.548.436a806.05 806.05 0 0 1 1.247 3.74s.102.454-.335.454H4.673z" fill="#2E4A74"></path><path d="M18.85 14.194a1.323 1.323 0 1 1 2.648 0 1.323 1.323 0 0 1-2.647 0" fill="#E4E3D7"></path><path d="M19.513 19.485v.973c0 .924.74 1.672 1.653 1.672s1.654-.748 1.654-1.672v-.973M.992 19.485v.973c0 .924.74 1.672 1.654 1.672.913 0 1.653-.748 1.653-1.672v-.973" fill="#2A456D"></path><path d="M16.867 16.839c0 .73-.548 1.323-1.225 1.323H8.17c-.677 0-1.225-.592-1.225-1.323 0-.73.548-1.323 1.225-1.323h7.472c.677 0 1.225.592 1.225 1.323" fill="#006750"></path><path d="M11.906 14.193v-4.3H6.35c.138 1.079.939 4.3 5.555 4.3" fill="#008D70"></path><path d="M11.906 14.193v-4.3h5.555c-.139 1.079-.939 4.3-5.555 4.3" fill="#009F7F"></path><path d="M5.656 5.472l3.43 3.43h2.235L7.683 5.264H6.068c-.04 0-.25.032-.412.208M12.798 8.902h1.341l-3.638-3.638H9.16z" fill="#2A8F9E"></path></g></svg>